<svg width="45" height="46" viewBox="0 0 45 46" fill="none" xmlns="http://www.w3.org/2000/svg">
<path d="M22.4771 0.846321C10.3221 0.846321 0.477051 10.8155 0.477051 23.1147C0.477051 35.414 10.3221 45.3831 22.4771 45.3831C34.6322 45.3831 44.4772 35.414 44.4772 23.1147C44.4772 10.8155 34.6322 0.846321 22.4771 0.846321ZM5.20699 23.3463L22.2433 40.5981C12.8933 40.4752 5.33074 32.8201 5.20699 23.3463ZM26.341 40.1616L5.63332 19.2008C7.39333 11.4283 14.2684 5.62777 22.4771 5.62777C28.2109 5.62777 33.2985 8.46211 36.4473 12.8231L34.0548 14.9592C31.511 11.2608 27.2759 8.83984 22.4771 8.83984C16.3721 8.83984 11.1746 12.7626 9.20831 18.2531L27.2759 36.5381C31.6622 34.9295 35.0447 31.1812 36.1722 26.5388H28.6784V23.1147H39.7609C39.7472 31.4271 34.0273 38.3837 26.341 40.1616Z" fill="#833BF9"/>
</svg>
