<svg width="34" height="31" viewBox="0 0 34 31" fill="none" xmlns="http://www.w3.org/2000/svg">
<path d="M33.1109 15.6554C33.1109 17.9337 30.3733 20.0951 26.1754 21.434C27.1448 25.896 26.7144 29.4451 24.8169 30.5808C24.3797 30.848 23.8682 30.9746 23.3099 30.9746V29.4103C23.6193 29.4103 23.8682 29.3462 24.0772 29.2279C24.9916 28.681 25.3889 26.5975 25.0796 23.9169C25.0053 23.2586 24.8843 22.5641 24.7358 21.8557C23.4186 22.1925 21.9789 22.4514 20.4651 22.6198C19.5576 23.9169 18.6157 25.0958 17.667 26.1271C19.8601 28.2523 21.9184 29.4173 23.3168 29.4173V30.9816C21.4674 30.9816 19.0461 29.6065 16.5972 27.221C14.1497 29.5926 11.7269 30.9524 9.87757 30.9524V29.3894C11.2704 29.3894 13.3357 28.2314 15.5275 26.1201C14.587 25.0888 13.6451 23.9169 12.75 22.6198C11.2292 22.4514 9.79094 22.1925 8.47232 21.8487C8.31694 22.5502 8.20283 23.2308 8.12171 23.8821C7.80546 26.5613 8.19595 28.6448 9.10483 29.1987C9.30558 29.3254 9.5682 29.3811 9.87757 29.3811V30.9454C9.31245 30.9454 8.80095 30.8201 8.3582 30.5529C6.46758 29.4172 6.04408 25.8752 7.01896 21.4271C2.83484 20.0812 0.110962 17.9267 0.110962 15.6554C0.110962 13.3756 2.84859 11.2142 7.04646 9.8753C6.07709 5.41326 6.50745 1.86425 8.40495 0.728558C8.8422 0.461337 9.35371 0.33606 9.91746 0.33606C11.7682 0.33606 14.1896 1.70977 16.6385 4.09527C19.0859 1.72369 21.5073 0.363922 23.3581 0.363922C23.9232 0.363922 24.4333 0.489158 24.8774 0.756379C26.7681 1.89207 27.1915 5.43554 26.2167 9.88226C30.387 11.2212 33.1109 13.3826 33.1109 15.6554ZM24.3536 20.3331C24.1047 19.4285 23.7953 18.496 23.4447 17.5621C23.1697 18.1244 22.8796 18.6852 22.5633 19.2461C22.2539 19.807 21.9253 20.354 21.5953 20.8871C22.5509 20.7395 23.4722 20.5572 24.3536 20.3331ZM21.2722 12.8634C20.7483 11.9156 20.2093 11.018 19.6511 10.1829C18.6487 10.0924 17.6339 10.0437 16.6109 10.0437C15.5948 10.0437 14.5801 10.0924 13.5846 10.1759C13.0263 11.011 12.4805 11.9018 11.9566 12.8426C11.4451 13.7612 10.9803 14.6936 10.5568 15.6331C10.9748 16.5739 11.4451 17.5134 11.9497 18.432C12.4736 19.3798 13.0126 20.2774 13.5708 21.1125C14.5732 21.203 15.5879 21.2517 16.6109 21.2517C17.6271 21.2517 18.6418 21.203 19.6373 21.1195C20.1956 20.2844 20.7414 19.3936 21.2653 18.4528C21.7768 17.5342 22.2416 16.6017 22.6651 15.6623C22.2416 14.7214 21.7768 13.782 21.2722 12.8634ZM23.4447 13.7751C23.8077 12.8356 24.1171 11.8948 24.3728 10.9831C23.4914 10.7591 22.5633 10.5698 21.6022 10.4223C21.9322 10.9623 22.2608 11.5162 22.5702 12.0841C22.8796 12.6449 23.1697 13.2142 23.4447 13.7751ZM16.6247 6.2901C15.9991 6.96372 15.3734 7.7139 14.7547 8.53504C15.3597 8.50721 15.9784 8.48633 16.6041 8.48633C17.2366 8.48633 17.8622 8.50025 18.4741 8.53504C17.8691 7.7139 17.2434 6.96372 16.6247 6.2901ZM11.6197 10.4223C10.6641 10.5698 9.74282 10.7521 8.86145 10.9762C9.11033 11.8809 9.41969 12.8134 9.77032 13.7472C10.0453 13.1864 10.3355 12.624 10.6517 12.0632C10.968 11.5023 11.2897 10.9553 11.6197 10.4223ZM16.5903 25.0192C17.2159 24.3456 17.8416 23.5954 18.4603 22.7743C17.8553 22.8021 17.2366 22.823 16.6109 22.823C15.9784 22.823 15.3528 22.8091 14.7409 22.7743C15.3459 23.5954 15.9716 24.3456 16.5903 25.0192ZM11.6128 20.8871C11.2842 20.347 10.9542 19.7931 10.6448 19.2253C10.3354 18.6644 10.0453 18.1021 9.77032 17.5412C9.40732 18.482 9.09796 19.4215 8.84221 20.3331C9.72359 20.5502 10.6517 20.7395 11.6128 20.8871ZM5.52571 12.1049C3.14421 13.1641 1.60421 14.5531 1.60421 15.6554C1.60421 16.7563 3.14421 18.1522 5.52571 19.2044C6.10459 19.4632 6.73708 19.6943 7.38883 19.9128C7.77245 18.5377 8.27707 17.107 8.9027 15.64C8.28395 14.1815 7.7862 12.7577 7.40945 11.3896C6.74258 11.6081 6.11146 11.846 5.52571 12.1049ZM9.14471 2.08134C8.23034 2.6297 7.83296 4.71181 8.14233 7.39238C8.21658 8.05069 8.33758 8.74516 8.48608 9.45358C9.80333 9.11677 11.243 8.85792 12.7568 8.68952C13.6643 7.39238 14.6062 6.21352 15.5549 5.18222C13.3618 3.05697 11.3035 1.89208 9.90508 1.89208C9.60258 1.89904 9.34684 1.96304 9.14471 2.08134ZM25.1002 7.42716C25.4164 4.74799 25.0259 2.66449 24.1171 2.11057C23.9163 1.98391 23.6537 1.92827 23.3443 1.92827C21.9514 1.92827 19.8862 3.08482 17.6944 5.19615C18.6349 6.22745 19.5768 7.39935 20.4719 8.69649C21.9927 8.86489 23.4309 9.12374 24.7496 9.46751C24.9049 8.7591 25.0259 8.0799 25.1002 7.42716ZM27.6893 12.1049C27.1104 11.846 26.4793 11.615 25.8262 11.3965C25.4426 12.7716 24.9379 14.2023 24.3123 15.6693C24.9311 17.1278 25.4288 18.5516 25.8056 19.9198C26.4724 19.7026 27.1036 19.4632 27.6962 19.2044C30.0777 18.1452 31.6177 16.7563 31.6177 15.6554C31.6108 14.5531 30.0708 13.1571 27.6893 12.1049Z" fill="#1ECFFF"/>
</svg>
