<svg width="45" height="36" viewBox="0 0 45 36" fill="none" xmlns="http://www.w3.org/2000/svg">
<path d="M37.9194 20.7696C36.3931 20.7793 35.0593 21.169 33.9318 21.7508C33.5193 20.8879 33.1068 20.1349 33.0381 19.5713C32.9693 18.9185 32.873 18.5191 32.9692 17.7383C33.0655 16.9575 33.4917 15.8496 33.4917 15.7592C33.478 15.6771 33.3956 15.279 32.5156 15.2693C31.6218 15.2595 30.8655 15.4502 30.7693 15.6966C30.6868 15.9415 30.5218 16.5038 30.4118 17.0841C30.2468 17.9373 28.6381 20.9602 27.7168 22.5482C27.4143 21.9317 27.1531 21.3875 27.1119 20.9519C27.0294 20.2978 26.9331 19.8983 27.0293 19.1175C27.1256 18.3367 27.5518 17.2303 27.5518 17.1384C27.5381 17.0577 27.4556 16.6583 26.5756 16.6485C25.6819 16.6402 24.9256 16.8309 24.8431 17.0758C24.7469 17.3208 24.6506 17.9011 24.4718 18.4648C24.2931 19.0271 22.1344 24.0737 21.5844 25.3903C21.2956 26.0611 21.0481 26.5969 20.8693 26.9602C20.6906 27.3234 20.8556 26.988 20.8418 27.0242C20.6906 27.3318 20.5942 27.5043 20.5942 27.5043V27.5141C20.4842 27.741 20.3468 27.9581 20.2918 27.9581C20.2505 27.9581 20.168 27.3499 20.3055 26.5148C20.6218 24.7639 21.4056 22.0319 21.3918 21.9317C21.3918 21.8858 21.5431 21.4056 20.8969 21.1607C20.2644 20.9157 20.0443 21.3235 19.9893 21.3235C19.9343 21.3235 19.8931 21.4682 19.8931 21.4682C19.8931 21.4682 20.5943 18.3924 18.5593 18.3924C17.2943 18.3924 15.5343 19.8538 14.6681 21.1871C14.1181 21.5058 12.9493 22.1767 11.7118 22.8934C11.2443 23.1662 10.7492 23.4571 10.2817 23.7201L10.1993 23.6102C7.73807 20.8419 3.18688 18.8823 3.37938 15.1607C3.44813 13.8079 3.88809 10.2408 12.1106 5.92073C18.8343 2.38006 24.2243 3.35153 25.1593 5.51156C26.4931 8.59851 22.2855 14.334 15.2868 15.1607C12.6193 15.478 11.2306 14.3883 10.8731 13.9805C10.5018 13.5532 10.4468 13.5351 10.3093 13.6172C10.0893 13.7439 10.2268 14.1253 10.3093 14.3521C10.5155 14.9241 11.3819 15.9415 12.8394 16.4495C14.1181 16.8935 17.2531 17.1384 21.0343 15.5963C25.2693 13.8622 28.5694 9.05222 27.6069 5.03C26.6169 0.93679 20.1818 -0.406268 14.118 1.87207C10.488 3.23322 6.56923 5.35706 3.75048 8.14339C0.409233 11.4475 -0.126896 14.334 0.0931042 15.5323C0.876854 19.8079 6.45936 22.5942 8.68686 24.654C8.57686 24.718 8.48065 24.7821 8.3844 24.8363C7.2569 25.4167 3.00807 27.7674 1.94932 30.2545C0.739321 33.0687 2.12798 35.0923 3.06298 35.3651C5.93673 36.2099 8.86549 34.6943 10.4605 32.1974C12.0417 29.702 11.8494 26.4605 11.1206 24.9811L11.0931 24.9268L11.9731 24.3826C12.5369 24.0277 13.1005 23.702 13.5818 23.4195C13.3068 24.21 13.1144 25.1453 13.0181 26.5065C12.8944 28.1042 13.5131 30.1738 14.3243 30.9907C14.6818 31.3443 15.1219 31.3526 15.3831 31.3526C16.3319 31.3526 16.7581 30.5273 17.2256 29.5377C17.8168 28.3311 18.3256 26.9324 18.3256 26.9324C18.3256 26.9324 17.693 30.718 19.453 30.718C20.0993 30.718 20.7318 29.837 21.0343 29.3833V29.393C21.0343 29.393 21.0481 29.3652 21.0756 29.3026C21.1169 29.2455 21.1581 29.1884 21.1856 29.1299V29.1118C21.4468 28.64 22.0243 27.5586 22.8768 25.7716C23.9905 23.4654 25.0494 20.5789 25.0494 20.5789C25.0494 20.5789 25.1593 21.2873 25.4756 22.4494C25.6681 23.1384 26.0806 23.8927 26.3969 24.6276C26.1356 25.0089 25.9843 25.226 25.9843 25.226V25.2358C25.7781 25.5266 25.5443 25.8342 25.3106 26.1432C24.4306 27.2511 23.3856 28.512 23.2481 28.8753C23.0831 29.3025 23.1243 29.6198 23.4406 29.8745C23.6743 30.0555 24.0869 30.0917 24.5131 30.0555C25.3106 30.0012 25.8605 29.7924 26.1355 29.6658C26.5618 29.5016 27.0568 29.2566 27.5243 28.8934C28.3905 28.2225 28.913 27.2691 28.858 25.9984C28.8305 25.2998 28.6243 24.6095 28.3493 23.9553C28.4318 23.8384 28.5006 23.7201 28.5831 23.5935C29.9443 21.4961 30.9893 19.1913 30.9893 19.1913C30.9893 19.1913 31.0994 19.8983 31.4157 21.0604C31.5807 21.6505 31.8968 22.295 32.1993 22.931C30.9206 24.0291 30.1231 25.2998 29.8481 26.1349C29.3394 27.677 29.7381 28.377 30.4806 28.5399C30.8243 28.6122 31.3056 28.4494 31.6631 28.2851C32.1031 28.1307 32.653 27.8676 33.148 27.4779C34.0005 26.8057 34.8256 25.8718 34.7843 24.6095C34.7568 24.0291 34.6193 23.4571 34.4131 22.9115C35.4993 22.4397 36.9018 22.1683 38.6755 22.3952C42.5118 22.867 43.268 25.3902 43.1168 26.4424C42.9655 27.496 42.168 28.0764 41.9067 28.2587C41.6317 28.4313 41.5493 28.4939 41.5768 28.622C41.618 28.8126 41.728 28.8029 41.9618 28.7667C42.278 28.7124 43.9693 27.9052 44.0381 25.9623C44.1481 23.4654 41.9069 20.7431 37.9194 20.7696ZM8.42552 31.2719C7.17427 32.7332 5.38675 33.2872 4.6305 32.8154C3.81925 32.3157 4.13553 30.1641 5.68928 28.6122C6.63803 27.6686 7.86184 26.7973 8.67309 26.2615C8.85184 26.1432 9.12677 25.9706 9.45677 25.7619C9.51177 25.7257 9.53935 25.7076 9.53935 25.7076C9.59435 25.6714 9.66312 25.6255 9.73187 25.5809C10.3094 27.7952 9.75927 29.7381 8.42552 31.2719ZM17.6656 24.6359C17.2256 25.7716 16.3044 28.6846 15.7406 28.5218C15.2594 28.3854 14.9705 26.1794 15.6443 24.0013C15.988 22.9031 16.7305 21.5963 17.1567 21.0869C17.8442 20.2699 18.6006 19.9985 18.7931 20.334C19.0131 20.7696 17.9406 23.9289 17.6656 24.6359ZM25.2968 28.4856C25.1043 28.5844 24.9256 28.6581 24.8569 28.6025C24.7881 28.5663 24.9255 28.4313 24.9255 28.4313C24.9255 28.4313 25.8882 27.3499 26.2594 26.8516C26.4794 26.5607 26.7406 26.2253 27.0156 25.844V25.9525C27.0156 27.2594 25.8193 28.1307 25.2968 28.4856ZM31.1681 27.0687C31.0306 26.9602 31.0443 26.6248 31.5118 25.5712C31.6906 25.1537 32.103 24.455 32.818 23.7925C32.9005 24.0653 32.9556 24.3283 32.9556 24.5733C32.9419 26.2072 31.8418 26.8154 31.1681 27.0687Z" fill="#E756AD"/>
</svg>
